Patient4_TMGait_0pt7_02_left_45_EMG.mot
version=1
nRows=37
nColumns=33
inDegrees=no
endheader
time	1LAddLong	2LGlutMax	3LGlutMed	4LIliopsoas	5LSemiMemb	6LBicFemLong	7LRecFem	8LVastMed	9LVastLat	10LGasMed	11LTibAnt	12lTibPost	13LPeroneusLong	14LSol	15LExtDigLong	16LFlexDigLong	17RAddLong	18RGlutMax	19RGlutMed	20RIliopsoas	21RSemiMemb	22RBicFemLong	23RRecFem	24RVastMed	25RVastLat	26RGasMed	27RTibAnt	28RTibPost	29RPeroneusLong	30RSol	31RExtDigLong	32RFlexDigLong
52.305	0.014038	-0.31998	0.20203	0.018768	-0.039368	0.093384	-0.36987	0.008087	0.041351	-0.32593	0.010223	-0.0177	-0.095215	-0.056	0.074463	0.26474	-0.074921	-0.46493	1.7776	0.11444	-0.32227	0.01297	-0.041046	0.45364	-0.16007	-0.10498	-0.056763	0.002899	0.09613	0.018311	-0.001068	-0.002594
52.306	0.019989	-0.38528	0.21194	0.022278	-0.082703	0.07309	-0.39642	-0.002441	0.048981	-0.24506	-0.000153	0.020447	0.004425	0.32516	0.065918	-0.16281	-0.074158	-0.6456	1.7247	0.18616	-0.4985	0.001678	0.056	0.19257	-0.41321	-0.075073	-0.049591	0.003967	0.30045	-0.050659	0	-0.001068
52.307	0.023956	-0.39154	0.18326	0.007935	-0.11261	0.003967	-0.38483	0.000305	0.033569	-0.19028	0.002289	0.06485	0.11581	0.95169	0.05188	0.20554	-0.075073	-0.6311	1.7119	0.16052	-0.75363	0.042267	0.22369	-0.35446	-0.37705	-0.070953	-0.024719	0.00061	0.39215	-0.062103	-0.002899	-0.005035
52.308	0.018005	-0.42328	0.17838	0.015106	-0.075226	-0.1239	-0.35446	-0.005188	0.02655	-0.11841	-0.000153	-0.091553	0.092316	1.4249	0.028992	-0.00061	-0.05188	-0.55618	1.8686	0.10239	-0.73456	0.15198	0.12268	0.30685	-0.24094	-0.045166	-0.015411	-0.001984	0.30243	-0.076447	-0.004272	-0.005188
52.309	0.032349	-0.45303	0.087433	0.025787	0.030365	-0.18372	-0.33096	-0.005188	0.019836	0.26764	-0.00351	-0.029755	0.049286	1.8079	0.000305	-0.36545	-0.011292	-0.51483	1.9572	0.029755	-0.72845	0.20432	-0.10239	0.52887	-0.21439	-0.059204	0.020294	0.001678	0.004272	0.022736	-0.005646	-0.00885
52.31	0.0383	-0.42282	-0.026245	0.041809	0.11993	-0.23789	-0.32776	0.002899	0.04364	0.4129	-0.011597	0.14999	0.21011	1.0071	-0.024109	-0.17395	0.056458	-0.43243	1.8869	-0.035095	-0.7724	0.037994	-0.02243	-0.019836	-0.12543	-0.033264	0.081024	-0.001373	-0.31906	0.11078	-0.009613	-0.010681
52.311	0.029755	-0.39246	-0.11063	0.016479	0.13351	-0.15762	-0.31906	0.001831	0.019684	0.18021	0.006561	-0.041962	-0.015717	-0.15427	-0.067596	-0.13931	0.14404	-0.38986	1.8152	-0.064392	-0.72601	-0.17212	0.098267	-0.3096	-0.080566	-0.029907	0.13001	-0.001221	-0.33676	0.12405	-0.003662	-0.021057
52.312	0.014648	-0.34347	-0.20508	-0.009918	0.08255	-0.038147	-0.27664	0.010681	-0.028076	-0.079803	0.015717	0.059357	-0.2977	-1.1617	-0.075378	0.12924	0.18707	-0.37247	1.8771	-0.067139	-0.54214	-0.33005	0.30243	-0.69473	-0.17578	0.015411	0.12589	-0.000305	0.28259	0.2121	-0.003357	-0.00946
52.313	0.009308	-0.35263	-0.21225	0.003357	0.077667	-0.014191	-0.24872	0.009155	-0.013733	0.000916	-0.010376	-0.028992	-0.063782	-1.2354	-0.036926	0.12054	0.17181	-0.44647	1.8758	-0.02182	-0.24887	-0.39322	0.35996	-0.87174	0.072174	0.042877	-0.002747	-0.002594	1.2483	0.20279	-0.003357	-0.007782
52.314	-0.002289	-0.32608	-0.33386	0.002136	0.038452	-0.061951	-0.24735	0.005035	-0.006104	0.21805	-0.015106	-0.2565	0.041199	-1.2752	-0.045319	0.11536	0.13473	-0.34531	1.9978	0.06073	-0.24063	-0.37094	0.22125	-0.89844	0.85709	0.036163	-0.09201	0.006561	0.89218	0.22003	-0.004425	-0.011597
52.315	0.013428	-0.27481	-0.30884	-0.018311	0.012054	-0.10834	-0.24902	0.002441	0.028076	0.33829	-0.009918	-0.13199	0.0177	-0.82245	-0.026245	0.079651	0.008087	-0.1033	2.0955	0.093231	-0.43259	-0.37247	0.28153	-0.63812	1.0991	0.035858	-0.030823	0.007629	0.3627	0.18951	-0.001831	-0.012817
52.316	0.009918	-0.298	-0.2739	-0.00885	0.005951	-0.052948	-0.2446	0.006714	0.031586	0.53146	-0.009766	0.23132	0.017548	-0.72296	-0.012207	0.11017	-0.079193	0.027313	2.2096	0.085297	-0.58319	-0.3447	0.58807	-0.33783	0.96512	0.03418	0.034943	0.000153	0.25589	0.177	-0.003662	-0.012207
52.317	0.010223	-0.2478	-0.27054	0.006409	-0.006561	0.052338	-0.25284	0.005646	0.034027	0.28564	-0.00412	-0.068207	-0.018158	-0.39841	-0.007782	-0.06485	-0.13367	0.10208	2.2734	0.035706	-0.51605	-0.08728	0.67841	0.085449	0.75867	0.04425	0.054016	0.001831	0.09613	0.20477	0.001221	-0.01297
52.318	0.010681	-0.33417	-0.47058	0.017395	-0.06012	0.16144	-0.27924	0.008087	0.064545	-0.086212	-0.011292	0.007477	0.022583	-0.45013	-0.007477	0.024719	-0.10315	-0.12543	2.1967	0.006561	-0.48889	-0.044861	0.45746	-0.13428	0.37064	0.076447	0.052643	-0.006866	-0.1918	0.030823	-0.004883	-0.010834
52.319	0.006409	-0.31067	-0.54688	0.010071	-0.03952	0.20691	-0.27512	0.003052	0.080719	-0.019073	0.011597	0.001526	0.079803	-0.13641	0.002594	-0.065765	-0.055847	-0.21774	2.2589	-0.051727	-0.63522	-0.22919	0.52033	0.04303	0.023651	0.09903	0.026398	-0.015411	-0.28046	-0.045013	-0.004883	0.001373
52.32	0.008392	-0.34714	-0.66773	0.012207	-0.080719	0.14938	-0.31326	0.004578	0.093536	0.037231	0.010529	0.011139	0.022736	0.19394	-0.015564	-0.53116	0.012054	-0.30609	2.2908	-0.036621	-0.45395	-0.47455	0.73883	1.0722	-0.31891	0.11475	-0.000458	0.033264	-0.40192	-0.078125	-0.004272	0.001068
52.321	0.003815	-0.34256	-0.74081	0.016785	0.0383	-0.002441	-0.27481	0.005493	0.094604	-0.11887	-0.001526	0.056	-0.014038	0.17548	-0.014038	-0.12207	0.060883	-0.41763	2.3007	-0.028839	-0.14862	-0.3566	0.84045	1.1195	-0.57129	0.044098	0.011749	0.014038	-0.056305	-0.010223	-0.004883	-0.007477
52.322	0.008698	-0.34119	-0.79285	0.018616	0.075226	-0.058441	-0.26398	0.001984	0.089264	-0.36636	0.00061	0.008698	-0.076294	0.14526	0.000763	0.68314	0.031128	-0.44342	2.2986	-0.010223	-0.023651	-0.14801	0.67993	0.82489	-0.84839	0.007324	-0.081024	-0.000458	0.52322	-0.043488	-0.007935	-0.000153
52.323	0.010834	-0.3363	-0.84351	0	0.05661	-0.04837	-0.22751	0.007935	0.07782	-0.30014	-0.000153	-0.013885	-0.041351	0.31815	-0.001831	-0.092468	-0.011597	-0.3981	2.0093	-0.026245	-0.80109	0.071716	0.18677	0.18784	-0.73303	0.055695	-0.12299	-0.00946	0.92956	-0.17166	-0.00351	0.001831
52.324	0.006714	-0.39978	-0.8017	0.013275	0.023346	-0.038605	-0.23361	0.006561	0.059357	-0.12497	-0.008087	-0.010681	-0.11444	0.33264	0.008087	-0.26382	-0.006561	-0.23529	1.7986	-0.12207	-0.90012	0.23331	-0.35477	-0.25726	-0.42252	0.071259	-0.026398	-0.019836	-0.013885	-0.063477	-0.003052	0.003815
52.325	0.00885	-0.41138	-0.79178	0.003052	-0.010681	-0.056	-0.21057	-0.000458	0.03891	-0.072632	0.020752	-0.027161	-0.13489	0.30777	-0.002899	0.12558	0.06485	-0.079956	1.702	-0.13321	-0.45227	0.098114	-0.35721	-0.2655	-0.2066	0.084991	0.039673	-0.024109	-0.93918	-0.056763	-0.004425	-0.003967
52.326	0.016327	-0.38483	-0.79926	-0.001221	0.001984	-0.028534	-0.21378	-0.000458	0.024109	0.031128	0.011902	-0.10422	-0.16281	0.41367	-0.006256	0.28153	0.035095	0.061035	1.5625	-0.16342	-0.26504	0.079803	-0.27008	-0.22827	-0.11978	0.068817	0.050354	-0.023651	-0.79254	0.068817	-0.001373	-0.007019
52.327	0.013428	-0.39047	-0.82428	0.010681	0.065765	0.005646	-0.20615	0.005188	0.010986	0.066071	0.00824	0.16769	-0.098877	0.3421	0.01709	-0.17471	-0.10849	0.22644	1.6563	-0.079346	0.079193	0.22492	-0.22064	-0.10986	-0.043488	0.070343	-0.007935	0.008698	0.43549	-0.028076	-0.003052	-0.010376
52.328	0.006866	-0.35431	-0.8342	-0.009308	0.063477	0.069275	-0.19852	-0.001831	0.0177	0.072784	0.000916	-0.15106	-0.10254	0.24857	0.011902	0.054932	-0.3093	0.27878	1.6382	0.12634	0.73593	0.31021	-0.504	0.16235	0.013733	0.090027	-0.047913	0.074615	1.0567	-0.11414	-0.003357	-0.00885
52.329	0.009155	-0.36758	-0.77988	-0.006561	0.005341	0.093079	-0.21851	-0.004883	0	0.16434	0.004578	0.058289	0.026093	0.20676	0.023956	0.18219	-0.32684	0.34286	1.7702	0.30594	1.1212	0.15945	-1.0223	0.058289	0.14252	0.089874	-0.023651	0.005951	1.1728	-0.13657	0.000305	-0.014801
52.33	0.010529	-0.40329	-0.75851	-0.005493	0.014191	0.076447	-0.20813	-0.000305	0.004883	0.27969	0.011139	0.039368	0.0383	0.006561	-0.00412	-0.002594	-0.21362	0.37491	2.1846	0.24139	0.82306	0.04364	-1.2604	-0.18173	0.18677	0.074921	0.034943	-0.007935	-0.3627	-0.17853	0.000153	-0.023499
52.331	0.006409	-0.42313	-0.70755	-0.016174	0.004883	0.023346	-0.22201	0.00061	0.012512	0.29907	-0.005493	0.20035	0.001526	0.17777	-0.016937	-0.21957	-0.11353	0.34332	2.3155	0.17242	0.53986	-0.10498	-1.0431	-0.1445	0.35889	0.051575	0.050049	-0.019836	0.18799	-0.1294	-0.001221	-0.011139
52.332	0.00885	-0.41351	-0.74463	0.00473	-0.054016	0.020142	-0.22903	0.001221	0.002747	0.30502	-0.006561	0.31891	-0.028076	0.29602	0.015564	0.24536	-0.062866	0.30182	2.1143	0.019531	0.47928	-0.12131	-0.49286	-0.26672	0.36941	0.034943	0.090942	-0.020599	0.99716	-0.074615	-0.003815	-0.011749
52.333	-0.003052	-0.40665	-0.79666	0.025787	-0.004883	0.006866	-0.20309	0.001373	-0.007172	0.077057	-0.00885	-0.54092	0.050812	0.24323	0.010529	-0.44373	0.01297	0.17273	1.7328	-0.088348	0.58823	-0.087128	-0.31708	-0.36865	0.16937	0.031891	-0.018921	-0.016022	0.23346	0.025787	-0.002899	-0.001068
52.334	-0.001221	-0.37827	-0.79819	0.015564	0.035095	-0.1091	-0.18784	0.00351	-0.028839	-0.094299	-0.012512	-0.078735	0.06485	0.43823	0.00412	0.12482	0.077362	0.15137	1.7804	-0.028534	0.6694	-0.096436	-0.45563	-0.51895	0.096893	0.042267	-0.069885	-0.02655	-0.69794	0.13947	-0.003357	0.004272
52.335	-0.016785	-0.32822	-0.70801	0.005798	0.043945	-0.16892	-0.18036	0.007935	-0.048828	-0.2243	0.002747	0.03952	0.03418	0.60547	0.00824	0.31723	0.047455	0.094452	1.5489	0.10742	0.76263	-0.032349	-0.44922	-0.46066	0.062256	0.033569	-0.001678	-0.063782	-0.88196	0.31021	-0.003662	0.000916
52.336	-0.005493	-0.33798	-0.69366	0.005341	-0.010834	-0.1741	-0.15427	0.005341	-0.063782	-0.23529	0.00885	0.1387	0.079346	0.25909	0.016174	0.11017	0.001831	0.016632	1.4371	0.14908	0.62943	0.068665	-0.19104	-0.41184	0.084839	-0.004425	0.043335	-0.21668	-0.16251	0.29816	-0.007019	-0.002136
52.337	-0.007172	-0.29159	-0.62592	-0.007324	-0.032043	-0.16007	-0.16159	0.007324	-0.061951	-0.11322	-0.001831	0.25543	0.019073	-0.77576	0.018158	0.036774	0.014038	-0.28244	1.4333	0.13016	0.49332	0.066986	-0.12421	-0.21851	-0.058594	-0.017395	0.034485	-0.36346	-0.47653	0.010223	-0.002899	0.005188
52.338	-0.001373	-0.3157	-0.50201	-0.009003	0.021362	-0.066223	-0.15884	0.010529	-0.070801	-0.003815	-0.005951	-0.3392	-0.030975	-1.066	0.037689	-0.13901	0.024414	-0.31265	1.2701	0.048065	0.60425	0.16785	-0.075531	0.16586	-0.1709	0.007629	0.034485	0.25665	0.46783	-0.21805	-0.005188	0.003357
52.339	0.001678	-0.3305	-0.4068	-0.006561	0.049286	0.025787	-0.15381	0.007019	-0.082703	-0.016937	-0.004578	-0.26382	-0.078735	-0.48401	0.053253	-0.26566	-0.036621	-0.20416	1.1362	0.02182	0.80978	0.33478	0.048828	0.55405	-0.22156	0.075226	-0.014648	0.2359	0.82062	-0.41702	0.00061	0.005493
52.34	0.006409	-0.32394	-0.28961	0.017548	0.050812	0.093689	-0.14618	-0.000916	-0.088959	-0.008545	0.001526	0.017242	-0.090942	0.37048	0.035095	0.063934	-0.06073	-0.11414	0.93903	-0.035248	0.8403	0.24796	0.039368	0.46921	-0.14236	0.067444	-0.01358	0.099335	0.28748	-0.2153	-0.001831	-0.002441
52.341	0.009155	-0.33783	-0.17197	0.012665	0.033264	0.1474	-0.13992	-0.000305	-0.086975	0.010071	0.001373	0.32089	-0.098877	0.39871	0.004883	0.17181	-0.049744	-0.20813	0.76721	-0.041504	0.82672	0.22919	0.1796	0.35034	-0.31403	0.062408	-0.031891	0.018921	-0.37277	-0.080261	0.002747	-0.003815
